<?xml version="1.0" standalone="no"?>
<!DOCTYPE svg PUBLIC "-//W3C//DTD SVG 20010904//EN"
 "http://www.w3.org/TR/2001/REC-SVG-20010904/DTD/svg10.dtd">
<svg version="1.0" xmlns="http://www.w3.org/2000/svg"
 width="1024.000000pt" height="1024.000000pt" viewBox="0 0 1024.000000 1024.000000"
 preserveAspectRatio="xMidYMid meet">

<g transform="translate(0.000000,1024.000000) scale(0.100000,-0.100000)"
fill="#000000" stroke="none">
<path d="M5007 9253 c-19 -43 -55 -121 -80 -174 l-44 -95 -199 -18 c-111 -10
-202 -22 -206 -28 -11 -19 1 -35 115 -136 62 -55 128 -117 147 -136 l35 -37
-23 -107 c-49 -227 -56 -272 -46 -282 12 -12 43 4 221 116 l135 83 71 -47
c225 -150 287 -180 287 -140 0 7 -18 96 -39 197 l-39 184 57 52 c31 28 76 69
101 90 82 70 150 139 150 151 0 19 -16 21 -221 40 l-192 18 -54 116 c-87 187
-107 225 -124 228 -11 2 -26 -21 -52 -75z"/>
<path d="M6538 8865 l-144 -148 -192 32 c-191 32 -222 34 -222 9 0 -7 45 -79
99 -160 55 -81 104 -156 110 -166 9 -16 -1 -37 -55 -123 -106 -167 -145 -239
-138 -250 9 -15 63 -6 250 42 l155 39 138 -142 c98 -101 142 -140 153 -135 18
7 22 36 35 254 5 78 12 145 15 148 3 4 81 37 172 74 91 37 178 76 193 88 l28
21 -74 33 c-41 18 -128 56 -195 84 -99 41 -122 54 -128 75 -4 14 -12 97 -18
185 -8 109 -16 164 -25 174 -12 12 -35 -7 -157 -134z"/>
<path d="M3416 8992 c-3 -5 -12 -91 -22 -193 -9 -101 -17 -184 -18 -185 0 0
-55 -22 -121 -49 -187 -76 -265 -113 -265 -128 0 -8 12 -19 28 -26 39 -19 313
-128 338 -135 20 -6 22 -17 34 -201 9 -132 18 -201 27 -213 12 -15 26 -3 154
127 l140 145 52 -12 c29 -6 112 -25 185 -41 153 -35 172 -37 172 -15 0 9 -43
84 -95 167 -53 84 -98 161 -101 173 -4 16 23 65 105 187 61 91 111 170 111
175 0 21 -32 19 -200 -14 -96 -19 -184 -34 -195 -34 -13 0 -72 52 -160 140
-132 132 -157 151 -169 132z"/>
<path d="M4253 8952 c-6 -4 -15 -20 -18 -35 -14 -56 53 -89 95 -47 25 25 26
52 2 73 -19 18 -59 22 -79 9z"/>
<path d="M5785 8936 c-37 -56 42 -118 89 -70 19 18 21 65 4 82 -21 21 -76 15
-93 -12z"/>
<path d="M4460 8723 c-42 -17 -51 -65 -16 -88 28 -19 69 -7 86 25 9 17 7 24
-14 45 -26 26 -31 27 -56 18z"/>
<path d="M5600 8710 c-11 -11 -20 -29 -20 -39 0 -39 71 -66 98 -39 20 20 14
65 -10 82 -30 21 -44 20 -68 -4z"/>
<path d="M4298 8690 c-31 -9 -134 -66 -160 -88 -22 -19 -23 -51 -3 -59 16 -6
161 47 203 73 45 29 13 88 -40 74z"/>
<path d="M5772 8678 c-7 -7 -12 -23 -12 -36 0 -19 13 -29 76 -58 87 -41 122
-46 137 -22 15 23 -10 50 -89 94 -65 36 -92 42 -112 22z"/>
<path d="M4460 8536 c-170 -40 -350 -95 -372 -114 -24 -20 -23 -49 1 -62 15
-8 45 -2 129 24 59 19 164 46 233 61 179 38 180 38 195 61 11 16 11 23 1 36
-21 28 -48 27 -187 -6z"/>
<path d="M5488 8563 c-21 -5 -35 -50 -21 -64 5 -5 74 -25 154 -43 79 -19 185
-46 234 -61 121 -36 158 -41 174 -21 11 13 11 20 -2 39 -12 19 -48 33 -174 70
-151 44 -327 88 -341 86 -4 -1 -15 -3 -24 -6z"/>
<path d="M4425 8339 c-222 -53 -260 -69 -253 -105 7 -39 31 -39 195 0 87 21
169 44 183 50 47 22 33 77 -19 75 -14 0 -62 -9 -106 -20z"/>
<path d="M5552 8336 c-17 -37 4 -54 87 -71 40 -8 112 -26 159 -40 110 -32 129
-32 144 0 20 44 -3 55 -235 111 -124 30 -141 30 -155 0z"/>
<path d="M2820 8309 c-26 -47 16 -91 69 -74 26 8 37 46 21 74 -8 15 -20 21
-45 21 -25 0 -37 -6 -45 -21z"/>
<path d="M7205 8306 c-21 -31 -12 -64 20 -72 36 -9 64 4 71 33 9 35 -7 57 -44
61 -24 2 -34 -3 -47 -22z"/>
<path d="M3096 8225 c-40 -41 -20 -105 33 -105 56 0 80 61 39 100 -26 24 -51
26 -72 5z"/>
<path d="M6940 8220 c-39 -39 -14 -100 42 -100 53 0 79 74 36 104 -30 21 -54
20 -78 -4z"/>
<path d="M2296 8213 c-3 -10 -8 -97 -12 -194 l-7 -175 -178 -89 c-105 -51
-179 -94 -179 -102 0 -18 64 -45 235 -100 77 -24 149 -48 160 -53 16 -6 27
-32 49 -116 43 -168 79 -268 97 -272 14 -3 72 79 190 271 l30 48 87 -5 c284
-18 312 -18 318 -2 7 18 0 26 -136 186 -49 57 -94 114 -101 126 -9 18 0 43 69
182 85 167 99 214 70 220 -9 2 -98 -29 -198 -68 l-181 -71 -27 20 c-15 10 -76
62 -137 115 -110 96 -139 111 -149 79z"/>
<path d="M7718 8178 c-36 -29 -97 -79 -135 -110 -39 -32 -78 -58 -87 -58 -9 0
-91 30 -183 66 -234 92 -236 90 -118 -154 41 -85 75 -161 75 -170 0 -8 -54
-82 -120 -163 -66 -82 -120 -156 -120 -165 0 -18 50 -17 325 2 l80 6 93 -150
c96 -155 114 -178 131 -167 10 5 62 163 108 324 l18 64 110 32 c225 68 313
104 300 126 -4 5 -87 50 -186 99 l-179 90 0 63 c0 34 -3 119 -7 190 -7 152 -9
153 -105 75z"/>
<path d="M3129 7974 c-80 -74 -159 -160 -159 -174 0 -13 30 -40 45 -40 14 0
233 199 247 225 12 20 -12 55 -39 55 -13 0 -51 -27 -94 -66z"/>
<path d="M6854 8015 c-6 -24 17 -75 34 -75 8 0 122 -110 159 -154 13 -14 32
-26 42 -26 24 0 53 38 43 56 -4 7 -53 60 -109 118 -85 89 -106 106 -132 106
-24 0 -32 -5 -37 -25z"/>
<path d="M4826 7914 c-23 -23 -20 -51 8 -69 28 -18 58 -9 75 24 23 43 -47 81
-83 45z"/>
<path d="M5227 7912 c-24 -26 -21 -49 8 -68 48 -31 101 15 70 62 -19 29 -55
32 -78 6z"/>
<path d="M4427 7843 c-97 -25 -140 -41 -147 -54 -12 -21 -4 -45 16 -53 15 -6
275 55 322 74 42 18 21 71 -27 69 -15 0 -88 -17 -164 -36z"/>
<path d="M5502 7868 c-16 -16 -15 -43 1 -55 11 -9 227 -67 300 -80 59 -11 79
47 25 72 -31 14 -277 75 -302 75 -7 0 -17 -5 -24 -12z"/>
<path d="M3259 7840 c-21 -13 -97 -80 -140 -124 -40 -41 -48 -63 -27 -84 22
-22 53 -12 104 36 28 26 67 62 87 80 36 31 45 55 29 78 -11 16 -37 23 -53 14z"/>
<path d="M6802 7838 c-7 -7 -12 -19 -12 -29 0 -15 153 -174 183 -190 19 -11
54 7 60 31 5 21 -31 73 -80 113 -12 10 -38 33 -58 52 -36 36 -72 44 -93 23z"/>
<path d="M5058 7768 c-8 -13 -23 -44 -33 -70 -10 -26 -23 -52 -30 -58 -7 -6
-47 -15 -90 -19 -42 -5 -79 -12 -83 -16 -4 -4 22 -34 57 -67 l64 -60 -18 -79
c-10 -44 -15 -82 -12 -86 8 -7 48 11 112 51 l40 24 65 -39 c36 -21 71 -39 78
-39 17 0 15 55 -3 116 -8 27 -15 50 -15 50 0 1 32 28 71 59 39 32 67 61 62 66
-7 7 -123 28 -159 29 -6 0 -24 28 -39 63 -15 34 -33 70 -40 80 -12 17 -13 16
-27 -5z"/>
<path d="M4027 7713 c-14 -13 -7 -43 12 -53 34 -18 68 10 55 45 -6 15 -55 21
-67 8z"/>
<path d="M6030 7690 c0 -26 3 -30 29 -30 16 0 31 6 35 15 10 26 -5 45 -35 45
-26 0 -29 -4 -29 -30z"/>
<path d="M4115 7575 c-14 -32 -25 -61 -25 -66 0 -16 -35 -26 -103 -32 -37 -2
-71 -8 -75 -12 -4 -4 21 -34 56 -66 l63 -60 -15 -53 c-19 -63 -21 -116 -5
-116 6 0 41 16 78 36 l66 36 62 -36 c96 -57 106 -50 78 54 -8 30 -15 62 -15
70 0 8 27 37 60 64 86 71 80 83 -45 88 l-60 3 -36 69 c-19 39 -41 72 -47 74
-6 2 -23 -22 -37 -53z"/>
<path d="M5940 7563 c-17 -37 -36 -71 -43 -75 -7 -4 -37 -8 -67 -8 -68 0 -100
-8 -100 -25 0 -8 27 -37 61 -66 53 -47 59 -56 53 -79 -20 -70 -31 -136 -24
-144 7 -7 74 24 136 64 19 11 25 11 50 -7 16 -11 48 -30 72 -42 55 -28 60 -17
35 84 l-20 76 36 32 c20 18 48 42 64 53 15 12 27 26 27 32 0 12 -49 22 -112
22 l-49 0 -34 75 c-18 41 -38 75 -43 75 -6 0 -24 -30 -42 -67z"/>
<path d="M3718 7550 c-111 -70 -143 -102 -127 -131 5 -10 18 -19 28 -19 10 0
71 34 135 77 104 68 117 79 114 102 -5 46 -42 38 -150 -29z"/>
<path d="M6255 7599 c-17 -27 9 -57 111 -123 110 -73 139 -82 158 -53 17 26 0
45 -110 119 -95 64 -144 82 -159 57z"/>
<path d="M1940 7430 c-26 -26 -25 -44 2 -70 27 -25 50 -26 71 -2 22 24 21 55
-1 75 -25 22 -48 21 -72 -3z"/>
<path d="M8097 7432 c-10 -10 -17 -28 -17 -39 0 -23 30 -53 53 -53 21 0 57 35
57 55 0 21 -36 55 -58 55 -11 0 -26 -8 -35 -18z"/>
<path d="M2140 7370 c-17 -17 -48 -61 -85 -119 -5 -8 -15 -20 -21 -26 -15 -14
-125 -179 -147 -220 -22 -42 -10 -75 28 -75 27 0 24 -4 139 172 46 69 100 146
120 169 46 54 56 87 31 106 -26 18 -42 16 -65 -7z"/>
<path d="M7906 7374 c-23 -22 -20 -39 12 -76 15 -18 50 -63 77 -100 26 -37 53
-64 58 -61 6 3 7 1 3 -6 -9 -13 90 -178 114 -191 21 -11 60 14 60 39 0 23
-184 298 -260 389 -22 26 -42 28 -64 6z"/>
<path d="M1869 7283 c-9 -2 -21 -16 -28 -30 -28 -62 58 -102 87 -41 21 44 -10
81 -59 71z"/>
<path d="M8203 7280 c-34 -14 -41 -59 -13 -82 12 -10 28 -18 36 -18 19 0 54
36 54 55 0 16 -35 55 -47 54 -5 0 -18 -4 -30 -9z"/>
<path d="M3332 7178 c-27 -27 -3 -88 34 -88 31 0 54 21 54 48 0 35 -16 52 -50
52 -14 0 -31 -5 -38 -12z"/>
<path d="M6717 7172 c-22 -24 -21 -45 3 -67 41 -37 107 14 81 64 -15 27 -61
28 -84 3z"/>
<path d="M2213 7143 c-40 -52 -132 -202 -188 -308 -48 -92 -54 -129 -22 -149
29 -18 48 3 112 130 33 66 88 160 121 210 73 109 77 119 58 139 -25 24 -50 17
-81 -22z"/>
<path d="M7827 7168 c-9 -5 -17 -16 -17 -25 0 -9 32 -66 71 -126 39 -61 96
-162 127 -224 50 -104 57 -114 80 -111 37 4 49 30 34 71 -21 57 -121 238 -180
326 -58 85 -85 106 -115 89z"/>
<path d="M6409 7090 c-9 -5 -86 -85 -171 -177 -85 -92 -240 -260 -344 -372
-380 -410 -411 -446 -449 -520 -60 -121 -75 -296 -37 -434 29 -103 28 -141 -7
-202 -36 -62 -380 -444 -603 -670 -168 -170 -263 -258 -603 -566 -99 -89 -225
-206 -280 -259 -55 -53 -147 -141 -205 -196 -58 -54 -108 -103 -112 -109 -4
-5 -9 -7 -12 -4 -3 3 29 40 72 81 99 98 137 138 130 138 -4 0 -13 -6 -20 -12
-7 -7 -47 -42 -88 -77 -41 -36 -103 -93 -137 -127 -35 -34 -63 -58 -63 -55 0
38 247 304 378 406 28 22 51 44 52 48 0 11 -166 -126 -376 -310 -91 -80 -124
-134 -124 -201 0 -58 20 -101 67 -143 52 -47 101 -63 169 -56 129 13 210 88
533 495 203 255 263 327 235 280 -116 -190 -456 -641 -549 -727 -25 -23 -75
-56 -111 -73 -57 -27 -73 -30 -137 -26 -86 5 -136 26 -193 84 -76 76 -95 202
-45 306 41 85 123 154 560 473 130 95 313 232 371 277 19 15 82 64 140 110
108 85 460 427 460 447 0 38 -47 5 -825 -574 -104 -77 -230 -170 -280 -205
-222 -158 -442 -330 -486 -380 -67 -74 -92 -141 -97 -260 -3 -79 0 -105 18
-152 91 -244 380 -337 620 -200 120 69 224 200 650 817 373 541 544 759 785
1000 194 194 277 256 384 285 37 10 60 8 154 -11 281 -56 482 31 681 296 180
239 646 931 646 959 0 46 -37 64 -74 35 -14 -11 -161 -201 -327 -422 -166
-221 -319 -420 -340 -442 -34 -35 -41 -38 -66 -29 -16 5 -32 21 -37 36 -11 31
-21 15 209 313 263 342 455 597 472 628 13 25 13 31 -2 53 -22 33 -48 30 -87
-11 -18 -20 -182 -221 -363 -448 -299 -373 -333 -412 -362 -415 -41 -4 -69 32
-54 69 5 13 65 92 133 174 68 83 160 197 206 255 45 58 147 188 227 290 80
101 145 193 145 203 0 32 -20 57 -44 57 -28 0 -60 -35 -331 -365 -453 -551
-438 -535 -469 -535 -33 0 -60 33 -52 64 3 14 36 60 74 104 63 74 194 234 407
496 261 321 271 338 221 371 -40 26 -33 32 -261 -240 -213 -254 -447 -531
-496 -587 -58 -67 -96 -77 -125 -33 -15 23 -15 27 4 57 12 18 29 42 39 53 10
11 65 76 123 145 57 69 188 225 291 347 261 310 275 328 261 358 -12 26 -43
32 -73 15z m-856 -1242 c-10 -155 38 -263 158 -360 82 -67 129 -82 254 -83
128 0 193 16 274 70 29 20 55 34 58 32 2 -2 -19 -25 -47 -51 -211 -198 -570
-126 -701 140 -30 61 -34 77 -34 153 0 60 6 100 18 134 10 26 20 47 22 47 1 0
1 -37 -2 -82z"/>
<path d="M2361 7023 c-17 -21 -31 -43 -31 -49 0 -7 -4 -14 -9 -16 -12 -4 -93
-132 -131 -207 -26 -53 -30 -68 -21 -88 12 -27 42 -30 66 -7 9 9 29 42 46 73
45 87 60 110 122 198 59 86 65 101 45 121 -23 23 -56 13 -87 -25z"/>
<path d="M7673 7053 c-22 -8 -14 -49 18 -89 41 -52 129 -196 158 -261 26 -55
37 -65 70 -56 36 9 35 40 -3 117 -50 100 -75 138 -86 131 -5 -3 -7 0 -5 7 3 8
-17 46 -45 86 -51 71 -68 81 -107 65z"/>
<path d="M1701 6918 c-5 -13 -36 -92 -69 -177 -33 -85 -66 -157 -74 -161 -7
-5 -92 -15 -188 -25 -216 -20 -220 -21 -220 -43 0 -11 61 -72 145 -146 80 -71
148 -132 150 -137 3 -4 -11 -71 -30 -149 -40 -164 -51 -235 -38 -243 9 -6 39
10 256 136 54 31 101 57 105 57 4 0 81 -47 172 -105 159 -102 183 -114 194
-97 3 5 -11 87 -29 183 -19 96 -35 182 -35 191 0 10 45 52 107 100 155 121
195 158 183 173 -6 7 -96 27 -200 46 -105 18 -194 35 -198 38 -4 4 -43 76 -85
161 -114 230 -127 247 -146 198z"/>
<path d="M8273 6748 l-98 -193 -95 -17 c-52 -9 -138 -24 -190 -33 -52 -9 -101
-23 -109 -30 -17 -16 -1 -32 172 -172 100 -80 118 -98 113 -117 -12 -50 -56
-313 -56 -338 0 -17 5 -28 14 -28 7 0 49 23 92 52 44 28 119 75 167 105 76 46
91 52 110 42 23 -12 150 -86 249 -145 31 -19 65 -34 75 -34 18 0 19 4 12 53
-5 28 -24 115 -43 192 l-35 140 52 50 c29 28 100 92 156 144 88 80 101 96 88
106 -9 6 -80 17 -159 24 -79 7 -168 16 -198 20 l-55 6 -27 70 c-15 39 -47 119
-70 179 -24 61 -48 111 -55 113 -6 2 -54 -80 -110 -189z"/>
<path d="M3037 6912 c-45 -50 22 -117 71 -72 27 26 28 44 2 70 -25 25 -52 26
-73 2z"/>
<path d="M7012 6918 c-7 -7 -12 -24 -12 -38 0 -14 5 -31 12 -38 28 -28 88 -2
88 38 0 40 -60 66 -88 38z"/>
<path d="M3445 6897 c-146 -38 -213 -135 -237 -339 -39 -327 130 -793 380
-1051 219 -226 458 -305 746 -247 99 20 118 22 146 10 64 -26 154 -93 265
-195 63 -58 119 -105 126 -105 10 0 88 53 153 104 18 15 10 24 -146 178 -93
92 -172 179 -181 200 -17 36 -17 38 12 110 42 107 55 183 48 296 -14 253 -174
507 -470 743 -230 185 -479 293 -697 304 -61 3 -113 0 -145 -8z m115 -121 c0
-2 -25 -16 -55 -30 -93 -46 -126 -116 -126 -266 0 -198 86 -407 252 -613 139
-173 315 -289 500 -328 107 -23 229 8 301 78 53 51 59 34 8 -21 -56 -61 -96
-84 -172 -100 -75 -16 -163 -7 -251 25 -32 11 -61 19 -63 16 -2 -2 28 -19 68
-38 70 -32 78 -34 188 -34 106 0 119 2 168 28 68 36 124 87 156 142 57 97 72
251 37 385 -11 41 -18 76 -17 78 2 1 13 -20 25 -47 63 -147 68 -303 13 -424
-77 -169 -254 -266 -462 -254 -202 12 -380 122 -538 333 -241 321 -333 836
-179 1003 31 33 147 87 147 67z m893 -1067 c-49 -85 -167 -150 -271 -148 -95
1 -107 16 -17 21 112 6 183 36 248 104 29 29 53 53 55 54 2 0 -5 -14 -15 -31z"/>
<path d="M2800 6590 c-31 -31 -25 -57 18 -79 33 -18 72 9 72 50 0 14 -39 49
-55 49 -8 0 -24 -9 -35 -20z"/>
<path d="M7258 6598 c-28 -22 -31 -55 -8 -78 12 -12 28 -19 37 -16 8 3 18 6
22 6 4 0 13 12 19 26 23 49 -28 94 -70 62z"/>
<path d="M2654 6342 c-19 -12 -34 -50 -28 -66 15 -39 90 -30 100 11 10 39 -40
77 -72 55z"/>
<path d="M7418 6338 c-25 -20 -31 -54 -12 -72 24 -25 66 -16 84 17 14 27 14
29 -9 48 -27 22 -41 24 -63 7z"/>
<path d="M2480 6041 c-23 -44 -5 -81 40 -81 32 0 50 17 50 46 0 48 -68 74 -90
35z"/>
<path d="M7566 6039 c-23 -33 0 -79 40 -79 14 0 30 10 40 25 15 23 15 27 0 50
-20 31 -59 33 -80 4z"/>
<path d="M1200 6010 c-26 -26 -25 -36 5 -65 29 -30 39 -31 65 -5 25 25 26 52
2 73 -25 22 -48 21 -72 -3z"/>
<path d="M8834 6005 c-30 -45 10 -88 65 -70 29 9 38 51 16 75 -25 27 -61 25
-81 -5z"/>
<path d="M2907 5975 c-32 -25 -67 -45 -77 -45 -10 0 -40 15 -66 33 -84 57 -78
60 -72 -37 7 -98 5 -101 -65 -135 -42 -21 -47 -21 -116 -6 -52 11 -78 12 -92
5 -25 -14 -24 -46 2 -61 27 -14 200 -49 245 -49 l34 0 0 -70 c0 -38 3 -70 6
-70 4 0 38 23 75 51 l69 51 66 -41 c36 -23 70 -41 76 -41 9 0 4 93 -8 124 -2
6 28 26 67 44 46 21 68 37 62 43 -5 5 -41 23 -79 39 l-69 29 4 90 c2 50 2 91
0 91 -2 -1 -30 -21 -62 -45z"/>
<path d="M7161 5929 l4 -91 -60 -22 c-106 -39 -106 -39 -50 -75 27 -17 57 -34
68 -37 15 -5 18 -12 13 -32 -3 -15 -9 -49 -12 -75 l-7 -49 39 21 c21 11 53 29
69 40 17 12 36 21 43 21 7 0 40 -20 74 -45 34 -25 65 -45 70 -45 4 0 8 30 10
67 l3 67 120 21 c142 25 161 31 169 50 15 40 -18 59 -79 45 -70 -17 -132 -12
-170 13 -19 12 -37 27 -39 33 -2 7 0 44 7 83 6 39 8 73 5 76 -3 3 -32 -10 -64
-30 -33 -19 -65 -35 -72 -35 -7 0 -38 20 -70 45 -31 25 -61 45 -66 45 -4 0 -7
-41 -5 -91z"/>
<path d="M8360 5890 c-98 -11 -122 -28 -99 -71 9 -18 17 -19 82 -14 103 9 137
21 137 49 0 15 -9 27 -25 34 -14 7 -27 11 -28 11 -1 -1 -31 -5 -67 -9z"/>
<path d="M1653 5879 c-18 -19 -16 -47 5 -57 31 -17 171 -25 187 -12 20 16 19
44 -1 61 -22 18 -175 25 -191 8z"/>
<path d="M1236 5764 c-41 -41 3 -68 129 -78 44 -3 177 -16 296 -28 119 -11
224 -18 233 -15 21 8 20 54 -1 65 -10 5 -83 15 -163 21 -80 7 -156 14 -170 16
-14 2 -56 7 -95 10 -38 4 -99 11 -135 16 -83 11 -76 12 -94 -7z"/>
<path d="M8735 5769 c-219 -27 -349 -41 -425 -46 -91 -5 -130 -21 -130 -54 0
-31 33 -36 163 -23 67 7 194 20 282 28 241 24 244 25 255 46 8 15 6 24 -10 40
-22 22 -28 22 -135 9z"/>
<path d="M1145 5575 c-14 -13 -25 -33 -25 -43 0 -33 38 -72 70 -72 32 0 70 39
70 72 0 25 -44 68 -70 68 -11 0 -32 -11 -45 -25z"/>
<path d="M8866 5576 c-32 -31 -33 -69 -4 -96 29 -27 64 -25 93 5 29 28 32 55
8 83 -30 35 -68 38 -97 8z"/>
<path d="M8595 5543 c-49 -70 -195 -298 -195 -305 0 -5 -92 -8 -204 -8 -112 0
-211 -3 -220 -6 -9 -3 -16 -12 -16 -20 0 -8 63 -79 140 -158 l140 -143 -60
-172 c-33 -95 -60 -184 -60 -198 0 -22 3 -24 27 -18 15 3 96 38 180 76 84 38
157 69 162 69 10 0 80 -53 200 -152 52 -43 100 -78 107 -78 22 0 24 31 18 219
l-6 186 134 87 c204 133 223 148 207 163 -8 7 -95 29 -194 50 -99 20 -187 39
-196 41 -12 3 -28 50 -59 177 -38 154 -62 227 -75 227 -2 0 -16 -17 -30 -37z"/>
<path d="M1469 5543 c-6 -15 -26 -86 -46 -158 -61 -228 -51 -208 -108 -218
-108 -17 -341 -69 -350 -78 -18 -18 10 -43 172 -154 l160 -110 -1 -195 c-1
-169 1 -195 14 -194 9 1 82 53 163 117 145 115 147 116 174 102 76 -40 286
-134 313 -140 26 -6 30 -4 30 15 0 12 -25 97 -55 189 -30 92 -55 173 -55 181
0 7 61 75 136 152 85 88 134 146 132 156 -3 15 -25 17 -213 17 l-210 0 -60 93
c-135 209 -161 246 -172 250 -7 2 -18 -9 -24 -25z"/>
<path d="M8305 5532 c-83 -3 -103 -9 -116 -33 -8 -16 -7 -25 7 -40 16 -17 27
-19 88 -14 39 3 81 8 93 11 29 6 49 40 33 59 -14 17 -34 20 -105 17z"/>
<path d="M1697 5524 c-14 -14 -7 -53 12 -64 11 -5 58 -10 106 -10 80 0 86 2
94 23 15 39 -8 50 -111 55 -51 2 -97 0 -101 -4z"/>
<path d="M2356 5484 c-19 -19 -20 -38 -3 -52 7 -6 109 -27 227 -47 118 -20
230 -39 247 -42 54 -9 88 43 44 66 -13 8 -472 91 -498 91 -1 0 -9 -7 -17 -16z"/>
<path d="M7500 5460 c-118 -20 -225 -40 -237 -44 -47 -15 -33 -82 15 -73 15 2
113 18 217 36 264 43 267 44 279 64 15 23 -3 52 -35 53 -13 1 -121 -15 -239
-36z"/>
<path d="M7600 5213 c-85 -7 -191 -16 -235 -20 l-80 -8 -3 -31 c-2 -20 2 -33
11 -37 7 -3 118 2 246 12 204 14 235 19 247 35 14 20 5 50 -18 58 -7 2 -83 -2
-168 -9z"/>
<path d="M2337 5213 c-12 -11 -8 -50 6 -61 6 -5 98 -15 202 -21 105 -6 208
-14 231 -17 30 -4 45 -2 57 11 20 20 21 26 5 48 -11 13 -52 19 -215 32 -224
17 -276 18 -286 8z"/>
<path d="M3310 4995 c-27 -32 -6 -48 170 -127 96 -43 184 -77 195 -75 15 1 20
9 20 31 0 28 -7 32 -175 107 -96 44 -180 79 -186 79 -6 0 -17 -7 -24 -15z"/>
<path d="M6660 4955 c-250 -117 -231 -106 -228 -134 2 -15 10 -27 20 -29 20
-4 359 144 370 161 4 7 8 15 8 19 0 11 -31 38 -43 37 -7 0 -64 -25 -127 -54z"/>
<path d="M2347 4942 c-21 -4 -32 -39 -17 -57 10 -12 54 -15 249 -15 238 0 261
3 261 36 0 7 -7 20 -17 29 -14 15 -42 16 -238 13 -121 -1 -229 -4 -238 -6z"/>
<path d="M7292 4938 c-7 -7 -12 -19 -12 -28 0 -37 18 -40 262 -40 226 0 238 1
248 20 8 15 6 24 -10 40 -19 19 -32 20 -248 20 -164 0 -231 -3 -240 -12z"/>
<path d="M5294 4859 c-19 -21 -19 -22 76 -111 189 -179 388 -338 994 -796 154
-117 301 -232 325 -255 59 -57 94 -135 94 -212 0 -73 -19 -120 -72 -178 -59
-64 -125 -90 -215 -85 -90 5 -148 33 -234 112 -109 102 -381 459 -515 676
l-27 45 27 -34 c34 -42 237 -292 341 -420 120 -148 235 -264 292 -295 36 -19
72 -30 114 -33 53 -4 68 -1 116 24 75 40 112 94 118 172 8 114 -46 176 -367
421 -90 69 -200 154 -245 189 -83 66 -86 59 -6 -13 24 -23 76 -70 115 -106 39
-36 102 -92 141 -125 102 -88 203 -186 227 -220 12 -16 -16 4 -61 47 -45 42
-132 118 -194 170 -529 440 -611 511 -967 833 -73 66 -135 120 -139 120 -4 0
-29 -24 -56 -53 l-49 -53 59 -87 c232 -339 715 -1030 797 -1142 134 -180 223
-268 318 -313 131 -62 230 -70 356 -26 175 60 284 246 254 433 -29 179 -87
238 -595 607 -48 35 -222 163 -385 284 -163 122 -348 259 -411 305 -63 46
-130 97 -148 112 -39 34 -53 35 -78 7z m1061 -1099 c32 -30 84 -79 115 -109
42 -41 46 -47 15 -23 -45 35 -241 221 -210 201 11 -8 47 -39 80 -69z"/>
<path d="M3328 4802 c-23 -4 -34 -41 -17 -58 16 -14 250 -49 274 -40 22 8 19
53 -4 61 -35 11 -236 40 -253 37z"/>
<path d="M6650 4784 c-95 -17 -120 -28 -120 -54 0 -31 23 -34 129 -21 137 18
151 22 161 42 27 50 -23 60 -170 33z"/>
<path d="M2570 4680 c-124 -15 -226 -28 -227 -29 -2 -1 -3 -12 -3 -25 0 -48
12 -49 262 -20 128 14 239 31 246 36 28 23 6 69 -32 67 -12 -1 -122 -14 -246
-29z"/>
<path d="M7280 4690 c-16 -16 -18 -25 -10 -40 6 -11 15 -20 19 -20 5 0 106
-11 225 -25 256 -30 240 -29 261 -9 14 14 14 19 2 37 -13 19 -35 24 -221 43
-113 12 -217 25 -231 28 -17 4 -31 0 -45 -14z"/>
<path d="M1087 4582 c-34 -37 -15 -82 34 -82 46 0 70 49 39 80 -25 25 -52 25
-73 2z"/>
<path d="M8947 4582 c-23 -25 -21 -58 4 -75 55 -39 113 38 61 81 -22 17 -46
15 -65 -6z"/>
<path d="M1720 4460 c-24 -24 -25 -33 -4 -65 19 -29 64 -34 88 -9 19 18 20 28
5 57 -23 42 -57 49 -89 17z"/>
<path d="M8317 4462 c-48 -53 12 -124 67 -81 15 12 26 31 26 44 0 50 -60 73
-93 37z"/>
<path d="M2660 4425 c-102 -23 -202 -46 -222 -49 -54 -10 -75 -63 -32 -80 15
-6 438 86 482 104 39 17 22 71 -22 69 -12 -1 -104 -20 -206 -44z"/>
<path d="M7220 4440 c-22 -42 -21 -43 362 -124 65 -14 124 -23 132 -20 22 8
30 44 14 60 -12 12 -352 88 -455 101 -35 5 -43 2 -53 -17z"/>
<path d="M1563 4409 c-30 -11 -40 -64 -17 -90 19 -21 64 -25 82 -7 16 16 15
73 0 85 -22 17 -42 21 -65 12z"/>
<path d="M8491 4394 c-26 -33 -27 -56 -3 -77 25 -23 57 -21 82 5 27 29 25 52
-6 77 -35 27 -48 26 -73 -5z"/>
<path d="M1135 4370 c-29 -32 -10 -74 33 -78 59 -6 82 38 42 78 -26 26 -52 25
-75 0z"/>
<path d="M8897 4372 c-34 -37 -15 -82 33 -82 32 0 50 17 50 46 0 48 -52 70
-83 36z"/>
<path d="M1780 4283 c-19 -7 -40 -33 -40 -49 0 -41 74 -59 103 -26 23 25 21
48 -5 66 -23 17 -33 18 -58 9z"/>
<path d="M8305 4282 c-22 -4 -45 -29 -45 -48 0 -46 89 -61 116 -19 16 24 15
27 0 44 -20 22 -42 29 -71 23z"/>
<path d="M1485 4249 c-4 -6 -6 -97 -4 -203 l4 -191 -106 -60 c-300 -170 -294
-159 -104 -219 44 -13 117 -35 163 -47 65 -17 85 -26 91 -43 4 -11 20 -92 36
-179 16 -87 34 -166 42 -175 12 -16 17 -13 52 26 22 23 72 86 113 138 40 53
80 105 88 115 14 17 22 18 90 10 140 -18 307 -25 314 -13 9 15 -4 38 -84 152
-37 52 -79 115 -93 140 l-26 45 79 164 c82 167 91 195 66 204 -8 3 -96 -21
-196 -54 l-181 -60 -52 38 c-29 21 -92 72 -142 114 -116 97 -141 114 -150 98z"/>
<path d="M8558 4208 c-35 -29 -95 -80 -134 -114 -125 -108 -95 -105 -310 -34
-249 82 -243 88 -135 -141 92 -194 91 -179 23 -272 -80 -109 -152 -219 -152
-233 0 -19 65 -18 251 1 80 9 147 11 151 7 5 -5 59 -74 121 -153 62 -79 120
-145 129 -147 11 -2 19 5 22 20 3 13 20 99 38 192 31 159 34 170 58 177 14 4
90 27 170 50 149 43 190 61 190 82 0 6 -77 57 -171 112 l-171 100 2 190 c3
219 3 215 -9 215 -6 0 -38 -23 -73 -52z"/>
<path d="M2930 4190 c-36 -27 -72 -50 -80 -50 -8 0 -45 12 -82 27 -38 14 -71
23 -75 19 -4 -3 3 -40 15 -81 12 -41 22 -80 22 -86 0 -6 -22 -42 -50 -79 -27
-37 -50 -71 -50 -75 0 -4 45 -4 99 -1 l99 7 42 -53 c56 -70 67 -76 81 -41 6
15 13 49 16 74 3 26 8 52 12 57 3 6 42 24 86 39 43 16 80 34 82 39 2 6 -31 27
-73 48 l-77 38 7 84 c3 46 3 84 -1 84 -5 0 -37 -23 -73 -50z"/>
<path d="M7130 4157 l0 -85 -71 -39 c-40 -21 -71 -42 -71 -48 0 -5 35 -22 78
-38 86 -31 90 -34 99 -86 11 -62 26 -111 33 -111 4 0 30 28 57 61 l50 61 91
-7 c52 -4 94 -3 97 2 3 5 -14 34 -39 64 -24 30 -47 64 -50 76 -3 12 3 50 15
85 12 34 21 70 21 81 0 20 -5 20 -95 -14 -65 -25 -66 -25 -118 15 -24 18 -56
41 -70 51 l-27 17 0 -85z"/>
<path d="M1217 4162 c-34 -37 -11 -92 38 -92 25 0 55 33 55 62 0 19 -36 48
-61 48 -9 0 -23 -8 -32 -18z"/>
<path d="M8822 4164 c-41 -29 -19 -94 33 -94 24 0 55 33 55 57 0 17 -36 53
-53 53 -7 0 -23 -7 -35 -16z"/>
<path d="M2456 4078 c-21 -29 -20 -41 2 -61 24 -22 55 -21 75 1 22 24 21 45
-1 65 -26 23 -58 21 -76 -5z"/>
<path d="M7600 4079 c-17 -30 -4 -68 24 -75 50 -12 88 35 59 75 -19 28 -68 28
-83 0z"/>
<path d="M2657 3732 c-21 -23 -22 -46 -1 -66 24 -24 61 -20 80 9 15 23 15 27
0 50 -20 30 -56 33 -79 7z"/>
<path d="M7408 3738 c-24 -20 -28 -44 -12 -67 20 -27 59 -27 78 1 20 29 20 34
-4 58 -23 23 -40 25 -62 8z"/>
<path d="M2871 3446 c-38 -46 25 -111 69 -71 22 20 26 55 8 73 -17 17 -63 15
-77 -2z"/>
<path d="M7172 3435 c-13 -29 -7 -52 19 -65 29 -16 47 -12 65 15 25 39 6 75
-39 75 -26 0 -36 -6 -45 -25z"/>
<path d="M2266 3314 c-9 -8 -16 -18 -16 -20 0 -10 41 -83 104 -187 l66 -109
-26 -84 c-15 -46 -30 -86 -34 -89 -4 -2 -62 9 -129 25 -146 36 -171 37 -171
11 0 -10 27 -75 60 -145 33 -69 62 -136 66 -149 5 -22 -9 -38 -117 -133 -171
-151 -164 -144 -148 -160 15 -14 117 -28 280 -40 53 -3 101 -9 107 -13 5 -3
26 -82 46 -175 20 -93 39 -173 42 -178 13 -20 36 -3 80 60 61 87 146 205 154
215 4 4 75 -8 159 -28 84 -19 159 -35 167 -35 36 0 25 38 -56 195 l-84 163
125 148 c165 198 154 183 141 196 -9 9 -55 7 -184 -5 -95 -10 -182 -17 -194
-17 -17 0 -43 39 -130 187 -60 102 -116 188 -125 190 -9 3 -34 36 -55 75 -61
112 -93 137 -128 102z"/>
<path d="M7797 3313 c-8 -10 -35 -51 -59 -90 -23 -40 -79 -125 -122 -189 l-79
-115 21 -21 c36 -37 61 -14 175 159 116 175 137 213 137 241 0 34 -47 43 -73
15z"/>
<path d="M2066 3295 c-9 -9 -16 -22 -16 -28 0 -6 35 -73 77 -149 70 -126 79
-138 104 -138 18 0 32 7 39 21 9 16 5 31 -23 82 -19 34 -53 96 -76 137 -48 86
-40 76 -67 84 -14 4 -28 1 -38 -9z"/>
<path d="M7988 3281 c-14 -15 -31 -44 -38 -62 -8 -19 -33 -64 -56 -100 -50
-79 -60 -105 -44 -124 33 -40 71 -6 159 144 64 111 73 144 42 161 -29 15 -37
13 -63 -19z"/>
<path d="M3042 3228 c-7 -7 -12 -24 -12 -38 0 -34 17 -50 52 -50 37 0 57 38
40 75 -13 27 -58 35 -80 13z"/>
<path d="M7004 3215 c-20 -31 -10 -63 22 -71 33 -8 52 1 66 31 24 53 -55 90
-88 40z"/>
<path d="M1892 3204 c-12 -8 -22 -21 -22 -29 0 -8 24 -50 53 -93 28 -43 60
-93 69 -110 23 -42 45 -50 70 -24 14 14 19 28 15 44 -12 46 -136 228 -157 228
-3 0 -16 -7 -28 -16z"/>
<path d="M8178 3208 c-8 -7 -25 -28 -38 -47 -19 -27 -21 -37 -12 -52 7 -11 8
-19 3 -19 -5 0 -11 6 -13 12 -4 11 -74 -85 -90 -123 -9 -22 18 -59 42 -59 11
0 27 12 36 28 9 15 38 58 63 96 25 37 55 84 66 103 l20 34 -24 20 c-27 22 -32
23 -53 7z"/>
<path d="M4199 2986 c-37 -83 -43 -86 -145 -86 -29 0 -56 -5 -60 -11 -3 -6 21
-39 56 -74 l62 -63 -16 -70 c-27 -120 -23 -124 75 -61 l63 41 73 -36 c40 -20
78 -36 83 -36 14 0 12 26 -7 104 l-18 69 64 57 c36 33 60 63 57 69 -4 6 -24
11 -45 11 -83 0 -130 12 -137 34 -12 40 -55 126 -64 126 -4 0 -23 -33 -41 -74z"/>
<path d="M5841 2986 l-33 -73 -51 -7 c-29 -3 -69 -6 -89 -6 -54 0 -49 -19 24
-84 l62 -56 -17 -73 c-10 -39 -17 -78 -17 -86 0 -19 38 -8 100 29 28 17 54 30
58 30 4 0 36 -18 72 -40 99 -61 102 -57 73 67 l-16 72 64 60 c73 69 71 80 -16
81 -86 0 -94 6 -131 86 -18 41 -38 74 -42 74 -5 0 -24 -33 -41 -74z"/>
<path d="M1840 2991 c-29 -8 -56 -51 -47 -74 10 -25 54 -49 77 -42 75 24 46
135 -30 116z"/>
<path d="M3307 2979 c-16 -22 -12 -52 9 -70 20 -17 63 -2 76 26 23 50 -54 90
-85 44z"/>
<path d="M6746 2984 c-21 -20 -20 -37 2 -64 38 -47 111 5 77 56 -18 28 -56 32
-79 8z"/>
<path d="M8220 2970 c-11 -11 -20 -29 -20 -40 0 -26 34 -60 60 -60 26 0 70 43
70 68 0 47 -73 69 -110 32z"/>
<path d="M7900 2877 c-25 -7 -96 -41 -159 -75 -75 -40 -126 -62 -147 -62 -18
0 -102 11 -186 25 -201 32 -261 35 -266 14 -1 -9 40 -80 93 -157 52 -78 95
-149 95 -158 0 -9 -34 -70 -75 -135 -41 -66 -87 -143 -101 -171 -24 -47 -25
-53 -10 -64 20 -14 53 -10 216 26 l125 28 18 -22 c10 -11 56 -76 103 -143 90
-129 100 -141 115 -126 5 5 29 87 53 182 24 95 46 175 49 177 2 3 83 13 178
24 182 19 209 25 209 44 0 6 -53 57 -118 113 -64 56 -130 115 -146 132 l-28
29 36 149 c20 81 36 156 36 166 0 20 -24 21 -90 4z"/>
<path d="M3490 2825 c-6 -8 -10 -22 -8 -32 4 -20 191 -154 284 -204 54 -29 64
-31 78 -20 36 30 15 53 -149 163 -88 59 -167 107 -176 107 -9 1 -22 -6 -29
-14z"/>
<path d="M6515 2788 c-38 -27 -107 -73 -153 -101 -99 -60 -113 -80 -83 -111
l22 -21 42 24 c108 62 297 194 302 212 8 25 -11 49 -39 48 -11 0 -52 -23 -91
-51z"/>
<path d="M5046 2774 c-48 -106 -48 -107 -101 -123 -42 -14 -50 -20 -53 -43 -2
-17 -15 -36 -33 -48 -16 -12 -29 -25 -29 -30 0 -4 35 -16 77 -27 l76 -19 42
-74 c22 -41 45 -75 50 -75 4 0 25 31 46 69 42 77 43 79 114 95 80 19 83 23 47
67 -18 21 -32 46 -32 56 0 13 -11 20 -40 24 -46 7 -61 24 -86 94 -9 26 -25 58
-34 70 l-17 23 -27 -59z"/>
<path d="M1902 2777 c-27 -28 -28 -49 -4 -70 24 -22 65 -21 85 1 22 25 21 48
-3 72 -26 26 -52 25 -78 -3z"/>
<path d="M8120 2771 c-17 -32 -11 -60 16 -77 24 -16 27 -16 52 3 15 11 29 28
30 37 9 46 -76 77 -98 37z"/>
<path d="M6959 2499 c-30 -28 -73 -66 -96 -86 -45 -37 -55 -70 -28 -93 8 -7
25 -10 37 -6 22 5 208 176 208 191 0 3 -5 15 -10 26 -18 33 -53 23 -111 -32z"/>
<path d="M3054 2513 c-6 -24 3 -36 89 -120 93 -91 120 -106 145 -81 27 27 11
55 -77 141 -73 72 -94 87 -120 87 -25 0 -32 -5 -37 -27z"/>
<path d="M6053 2498 c-27 -35 -15 -78 22 -78 18 0 45 27 45 45 0 17 -27 45
-44 45 -8 0 -18 -6 -23 -12z"/>
<path d="M4021 2481 c-24 -45 26 -79 63 -42 16 17 18 25 10 39 -16 25 -60 28
-73 3z"/>
<path d="M2962 2408 c-7 -7 -12 -16 -12 -21 0 -34 239 -297 271 -297 21 0 42
24 37 44 -5 24 -250 286 -268 286 -9 0 -21 -5 -28 -12z"/>
<path d="M7038 2338 c-42 -46 -101 -108 -132 -138 -58 -57 -70 -91 -39 -109
27 -15 59 8 168 120 118 122 153 172 135 194 -26 31 -55 16 -132 -67z"/>
<path d="M4282 2398 c-21 -21 -14 -58 12 -67 12 -5 86 -24 164 -41 149 -33
182 -31 182 9 0 27 -18 37 -85 51 -33 6 -94 20 -135 30 -41 10 -87 20 -101 24
-14 3 -31 0 -37 -6z"/>
<path d="M5735 2391 c-38 -10 -104 -26 -146 -35 -80 -18 -99 -29 -99 -58 0
-38 31 -39 191 -3 85 19 155 35 156 35 6 0 33 33 33 40 0 15 -31 40 -48 39 -9
0 -48 -9 -87 -18z"/>
<path d="M4826 2294 c-33 -32 -8 -84 39 -84 15 0 31 10 41 25 15 23 15 27 0
50 -19 29 -56 33 -80 9z"/>
<path d="M5225 2290 c-24 -27 -13 -68 22 -76 50 -13 86 29 60 70 -21 31 -57
34 -82 6z"/>
<path d="M6548 2154 l-139 -137 -47 7 c-26 3 -116 22 -201 42 -156 36 -179 36
-167 -3 3 -10 49 -86 101 -168 52 -83 95 -157 95 -165 0 -8 -47 -93 -105 -189
-57 -95 -102 -178 -98 -184 9 -14 83 -3 256 39 l153 37 141 -144 c112 -114
144 -141 154 -132 8 8 18 81 27 195 8 101 17 186 21 190 3 3 67 27 141 51 171
57 253 93 248 109 -3 7 -81 48 -174 90 -93 42 -181 83 -196 92 l-28 15 0 143
c0 180 -8 248 -27 248 -9 0 -78 -61 -155 -136z"/>
<path d="M3400 2263 c-1 -90 -21 -368 -27 -374 -5 -4 -91 -45 -192 -91 -101
-45 -186 -89 -189 -97 -7 -18 1 -22 197 -92 97 -34 181 -67 187 -73 6 -6 17
-85 23 -175 12 -158 22 -211 39 -211 4 0 70 63 147 140 76 77 142 140 145 140
4 0 84 -18 179 -40 190 -44 221 -48 221 -24 0 8 -40 81 -89 162 -137 228 -130
195 -64 298 127 201 156 255 145 266 -7 7 -61 -1 -189 -32 -98 -23 -186 -44
-195 -46 -11 -3 -61 38 -157 131 -136 131 -181 160 -181 118z"/>
<path d="M7024 2025 c-34 -14 -44 -31 -44 -75 0 -60 67 -72 113 -20 37 41 34
79 -8 96 -24 10 -37 10 -61 -1z"/>
<path d="M3017 2013 c-52 -58 32 -152 98 -109 28 19 34 69 12 100 -20 27 -88
33 -110 9z"/>
<path d="M5027 1973 c-14 -27 -50 -108 -82 -181 -32 -73 -65 -137 -74 -141 -9
-5 -103 -14 -209 -21 -106 -8 -195 -17 -198 -22 -6 -10 45 -63 205 -209 l104
-96 -11 -54 c-6 -30 -22 -108 -36 -174 -14 -65 -26 -129 -26 -141 0 -32 23
-36 61 -10 19 12 93 57 165 100 l132 77 167 -101 c91 -55 171 -98 176 -95 14
9 11 41 -21 206 -16 85 -30 165 -29 179 0 18 17 39 61 75 101 84 238 216 238
231 0 8 -1 14 -2 14 -19 0 -412 40 -413 42 -1 2 -28 64 -60 138 -73 171 -103
230 -115 230 -5 0 -20 -21 -33 -47z"/>
<path d="M2696 1984 c-19 -18 -21 -55 -4 -72 21 -21 66 -14 84 13 15 23 15 27
0 50 -19 29 -56 33 -80 9z"/>
<path d="M7341 1986 c-17 -20 -10 -67 11 -80 28 -17 72 4 76 37 4 36 -13 57
-48 57 -15 0 -33 -6 -39 -14z"/>
<path d="M5785 1924 c-115 -27 -298 -54 -365 -54 -51 0 -70 -13 -70 -47 0 -41
27 -45 192 -24 270 35 408 68 408 99 0 15 -25 40 -45 45 -11 2 -65 -6 -120
-19z"/>
<path d="M4196 1924 c-22 -22 -20 -41 7 -58 24 -16 184 -46 370 -71 166 -21
181 -20 198 11 12 24 12 28 -10 45 -17 14 -39 19 -80 19 -62 0 -274 31 -377
55 -81 19 -89 19 -108 -1z"/>
<path d="M2830 1880 c-24 -24 -24 -29 -4 -58 26 -37 94 -20 94 24 0 19 -36 54
-55 54 -8 0 -24 -9 -35 -20z"/>
<path d="M7216 1884 c-19 -18 -21 -55 -4 -72 22 -22 67 -14 80 13 22 50 -38
97 -76 59z"/>
<path d="M4081 1772 c-24 -46 -18 -50 162 -97 155 -40 176 -42 208 -17 30 25
19 48 -28 61 -132 34 -263 64 -295 68 -29 4 -38 1 -47 -15z"/>
<path d="M5942 1780 c-25 -10 -160 -43 -231 -57 -55 -10 -73 -34 -47 -62 25
-28 52 -26 192 9 142 37 172 48 183 69 23 41 -35 65 -97 41z"/>
<path d="M4124 1585 c-4 -8 -4 -22 0 -30 6 -16 181 -105 206 -105 23 0 40 20
40 46 0 28 -5 31 -110 71 -94 36 -128 40 -136 18z"/>
<path d="M5857 1566 c-91 -38 -112 -55 -102 -85 11 -35 44 -35 125 3 84 39
124 71 116 93 -3 8 -6 17 -6 19 0 13 -65 -2 -133 -30z"/>
<path d="M4460 1340 c-40 -40 -14 -100 43 -100 27 0 67 30 67 50 0 6 -7 24
-15 40 -19 36 -64 41 -95 10z"/>
<path d="M5577 1342 c-20 -22 -22 -73 -5 -90 32 -32 108 -1 108 44 0 55 -68
85 -103 46z"/>
<path d="M3816 1234 c-22 -21 -20 -50 4 -74 24 -24 38 -25 68 -4 28 20 30 69
3 84 -28 14 -57 12 -75 -6z"/>
<path d="M6220 1230 c-17 -32 -8 -63 22 -80 26 -14 29 -14 55 12 23 24 26 31
17 55 -8 23 -16 29 -46 31 -29 2 -39 -1 -48 -18z"/>
<path d="M4076 1204 c-19 -18 -21 -65 -4 -82 30 -30 88 1 88 46 0 21 -34 52
-57 52 -6 0 -19 -7 -27 -16z"/>
<path d="M5980 1200 c-24 -24 -26 -53 -4 -74 32 -33 94 -10 94 35 0 23 -34 59
-55 59 -8 0 -24 -9 -35 -20z"/>
<path d="M4262 1154 c-29 -20 -30 -68 -1 -88 35 -24 79 4 79 50 0 19 -32 54
-50 54 -3 0 -16 -7 -28 -16z"/>
<path d="M5810 1157 c-28 -14 -39 -59 -19 -83 6 -8 24 -14 39 -14 34 0 52 21
48 56 -4 38 -36 57 -68 41z"/>
<path d="M4430 1110 c-25 -25 -26 -52 -2 -73 25 -23 48 -21 73 4 22 22 19 55
-9 77 -22 17 -39 15 -62 -8z"/>
<path d="M5639 1123 c-9 -2 -21 -16 -28 -30 -9 -21 -9 -30 4 -49 18 -28 41
-30 73 -8 22 15 29 48 14 70 -9 14 -42 23 -63 17z"/>
</g>
</svg>
